<?xml version="1.0" encoding="utf-8"?>
<!-- Generator: Adobe Illustrator 18.0.0, SVG Export Plug-In . SVG Version: 6.00 Build 0)  -->
<!DOCTYPE svg PUBLIC "-//W3C//DTD SVG 1.1//EN" "http://www.w3.org/Graphics/SVG/1.1/DTD/svg11.dtd">
<svg version="1.1" id="Ebene_1" xmlns="http://www.w3.org/2000/svg" xmlns:xlink="http://www.w3.org/1999/xlink" x="0px" y="0px"
	 viewBox="0 0 700 90" enable-background="new 0 0 700 90" xml:space="preserve">
<g>
	<defs>
		<rect id="SVGID_1_" x="2" y="0.6" width="696.6" height="88.4"/>
	</defs>
	<clipPath id="SVGID_2_">
		<use xlink:href="#SVGID_1_"  overflow="visible"/>
	</clipPath>
	<line clip-path="url(#SVGID_2_)" fill="none" stroke="#F0F2F6" x1="3" y1="80.4" x2="698" y2="80.4"/>
	<path clip-path="url(#SVGID_2_)" fill="none" stroke="#828C91" d="M2.6,32.1l29-29c0,0,2.8-2.8,5.7,0l10.5,10.2
		c0,0,2.9,2.8,6.8,1.9l24.2-5.8c0,0,3.9-0.9,5,2.9l13.7,47.7c0,0,1.1,3.8,3.9,6.7l10.3,10.5c0,0,2.8,2.9,5.7,0.1l10.1-9.8
		c0,0,2.9-2.8,6.2-0.6L150.8,78c0,0,3.3,2.2,5.1-1.4l12.8-25.2c0,0,1.8-3.6,4.6-0.8l10.2,10.1c0,0,2.8,2.8,4.6-0.8l12.2-24.5
		c0,0,1.8-3.6,4.7-6.4l10.3-9.9c0,0,2.9-2.8,6.6-4.3l33.1-13.3c0,0,3.7-1.5,7.3,0.3l25,12.1c0,0,3.6,1.7,5.3,5.4l12.1,25.6
		c0,0,1.7,3.6,4.6,6.4l10.5,10.3c0,0,2.9,2.8,5.6-0.1l10.7-11c0,0,2.8-2.9,5.6,0l10,10.1c0,0,2.8,2.8,4.6-0.7l12.2-24.3
		c0,0,1.8-3.6,5.8-3.6l24.5-0.3c0,0,4,0,6.9-2.8L416,19c0,0,2.9-2.8,6.9-2.8l7.9-0.1c0,0,4,0,5.3,3.8l13.4,40.3c0,0,1.3,3.8,4.1,6.6
		L464,77.1c0,0,2.9,2.8,6.9,2.8l27.6-0.2l60.3,0.4c0,0,4,0,6.8-2.8l10.3-10.3c0,0,2.8-2.8,5.6,0l10.2,10.3c0,0,2.8,2.8,6.8,2.9
		l11.9,0.1h87.8"/>
	<line clip-path="url(#SVGID_2_)" fill="none" stroke="#F0F2F6" x1="2.5" y1="79.8" x2="2.5" y2="87.9"/>
	<line clip-path="url(#SVGID_2_)" fill="none" stroke="#F0F2F6" x1="258.2" y1="80.9" x2="258.2" y2="89"/>
	<line clip-path="url(#SVGID_2_)" fill="none" stroke="#F0F2F6" x1="514.2" y1="80.9" x2="514.2" y2="89"/>
	<line clip-path="url(#SVGID_2_)" fill="none" stroke="#F0F2F6" x1="130.2" y1="80.9" x2="130.2" y2="89"/>
	<line clip-path="url(#SVGID_2_)" fill="none" stroke="#F0F2F6" x1="385.9" y1="80.9" x2="385.9" y2="89"/>
	<line clip-path="url(#SVGID_2_)" fill="none" stroke="#F0F2F6" x1="641.9" y1="80.9" x2="641.9" y2="89"/>
	<line clip-path="url(#SVGID_2_)" fill="none" stroke="#F0F2F6" x1="66.1" y1="80.9" x2="66.1" y2="89"/>
	<line clip-path="url(#SVGID_2_)" fill="none" stroke="#F0F2F6" x1="321.8" y1="80.9" x2="321.8" y2="89"/>
	<line clip-path="url(#SVGID_2_)" fill="none" stroke="#F0F2F6" x1="577.8" y1="80.9" x2="577.8" y2="89"/>
	<line clip-path="url(#SVGID_2_)" fill="none" stroke="#F0F2F6" x1="194.1" y1="80.9" x2="194.1" y2="89"/>
	<line clip-path="url(#SVGID_2_)" fill="none" stroke="#F0F2F6" x1="449.8" y1="80.9" x2="449.8" y2="89"/>
	<path clip-path="url(#SVGID_2_)" fill="none" stroke="#C9CDD8" d="M2.5,64.1l13.3,13.3c0,0,2.8,2.8,6.8,2.8h55.8c0,0,4,0,6.8-2.8
		l13.3-13.2L111.7,51c0,0,2.8-2.8,6.8-2.8h23.9c0,0,4,0,6.8,2.8l10,10c0,0,2.8,2.8,6.8,2.8h32.4c0,0,4,0,6.8-2.8L231,35.1
		c0,0,2.8-2.8,5.8-0.1l10.9,10.2c0,0,2.9,2.7,5.8-0.1l10.3-10.3c0,0,2.8-2.8,5.7,0l10.5,10.5c0,0,2.8,2.8,4.6,6.4l12.3,24.7
		c0,0,1.8,3.6,5.8,3.6h63.9c0,0,4,0,6.8-2.8l10.4-10.4c0,0,2.8-2.8,6.8-2.8h8.1c0,0,4,0,6.8,2.8l10.3,10.3c0,0,2.8,2.8,5.7,0
		l26.2-26.3c0,0,2.8-2.8,5.7,0l13.2,13.2l13.1,12.8c0,0,2.9,2.8,6.9,2.8h88c0,0,4,0,5.3-3.8l13.5-40c0,0,1.3-3.8,4.1-1l10.4,10.4
		c0,0,2.8,2.8,4.6,6.4l12.4,24.6c0,0,1.8,3.6,5.8,3.6H698"/>
	<path clip-path="url(#SVGID_2_)" fill="none" stroke="#F03250" d="M2.6,79.9h123.9c0,0,4,0,5.3-3.8l13.6-40.4c0,0,1.3-3.8,2.5,0
		L161.4,76c0,0,1.3,3.8,5.3,3.8h40.1c0,0,4,0,6.8-2.8l10.2-10.2c0,0,2.8-2.8,6.8-2.8h8.1c0,0,4,0,6.8-2.8l10.3-10.3
		c0,0,2.8-2.8,5.7,0l10.3,10.3c0,0,2.8,2.8,4.6-0.8l12.3-24.8c0,0,1.8-3.6,3,0.2l13.3,39.9c0,0,1.3,3.8,5.3,3.8h40c0,0,4,0,6.9-2.8
		l10.3-9.9c0,0,2.9-2.8,5.7,0l10.8,10.4c0,0,2.9,2.8,6.9,2.8h200.1c0,0,4,0,6.8-2.9L608,66.6c0,0,2.8-2.9,5.6,0l10.6,10.9
		c0,0,2.8,2.9,6.8,2.9l67.8-0.4"/>
</g>
</svg>
