<?xml version="1.0" encoding="utf-8"?>
<!-- Generator: Adobe Illustrator 18.0.0, SVG Export Plug-In . SVG Version: 6.00 Build 0)  -->
<!DOCTYPE svg PUBLIC "-//W3C//DTD SVG 1.1//EN" "http://www.w3.org/Graphics/SVG/1.1/DTD/svg11.dtd">
<svg version="1.1" id="Ebene_1" xmlns="http://www.w3.org/2000/svg" xmlns:xlink="http://www.w3.org/1999/xlink" x="0px" y="0px"
	 viewBox="0 0 16 21" enable-background="new 0 0 16 21" xml:space="preserve">
<g>
	<defs>
		<rect id="SVGID_1_" width="16" height="21"/>
	</defs>
	<clipPath id="SVGID_2_">
		<use xlink:href="#SVGID_1_"  overflow="visible"/>
	</clipPath>
	<path clip-path="url(#SVGID_2_)" fill="#F5F5FA" d="M8.8,0H0.9C0.4,0,0,0.4,0,0.9v19.2c0,0.9,1.1,1.2,1.6,0.5l2.6-3.8
		c0.1-0.1,0.2-0.3,0.2-0.5v-2v-4V4.9C4.4,4.4,4.7,4,5.2,4h3.4c2,0,3,1,3,3.1c0,1.9-0.9,3-2.6,3.1c-0.3,0-0.5,0.2-0.6,0.4l-1.6,2.3
		c-0.4,0.6,0,1.4,0.7,1.4h1.2c4.7,0,7.2-2.9,7.2-7.2S13.5,0,8.8,0"/>
</g>
</svg>
