<?xml version="1.0" encoding="utf-8"?>
<!-- Generator: Adobe Illustrator 18.0.0, SVG Export Plug-In . SVG Version: 6.00 Build 0)  -->
<!DOCTYPE svg PUBLIC "-//W3C//DTD SVG 1.1//EN" "http://www.w3.org/Graphics/SVG/1.1/DTD/svg11.dtd">
<svg version="1.1" id="Ebene_1" xmlns="http://www.w3.org/2000/svg" xmlns:xlink="http://www.w3.org/1999/xlink" x="0px" y="0px"
	 viewBox="0 0 95 21" enable-background="new 0 0 95 21" xml:space="preserve">
<g>
	<defs>
		<rect id="SVGID_1_" width="95" height="19.7"/>
	</defs>
	<clipPath id="SVGID_2_">
		<use xlink:href="#SVGID_1_"  overflow="visible"/>
	</clipPath>
	<path clip-path="url(#SVGID_2_)" fill="#F5F5FA" d="M7.5,9.8c0-1-0.2-1.9-0.7-2.4C6.3,6.8,5.7,6.5,4.9,6.5S3.6,6.8,3.1,7.4
		C2.7,8,2.4,8.8,2.4,9.8c0,1.1,0.2,1.9,0.7,2.5c0.5,0.6,1.1,0.9,1.8,0.9s1.3-0.3,1.8-0.9C7.2,11.7,7.5,10.9,7.5,9.8 M2.7,15v4.4
		c0,0.2-0.1,0.3-0.3,0.3H0.3c-0.2,0-0.3-0.1-0.3-0.3V4.7c0-0.2,0.1-0.3,0.3-0.3h2.1c0.2,0,0.3,0.1,0.3,0.3C2.7,5,3,5.1,3.2,5
		c0.5-0.4,1.3-0.7,2.1-0.7c3.2,0,5,2.2,5,5.6c0,3.4-1.8,5.6-5,5.6c-0.8,0-1.6-0.3-2.1-0.7C3,14.6,2.7,14.8,2.7,15"/>
	<path clip-path="url(#SVGID_2_)" fill="#F5F5FA" d="M14.3,15.3h-1.8c-0.3,0-0.5-0.2-0.5-0.5v-10c0-0.3,0.2-0.5,0.5-0.5h1.8
		c0.3,0,0.5,0.2,0.5,0.5v0c0,0.4,0.5,0.6,0.8,0.3c0.7-0.6,1.5-1,2.5-1c0.3,0,1.1,0.1,1.7,0.3C20,4.6,20.2,5,20,5.3L19,6.6
		c-0.1,0.2-0.3,0.2-0.5,0.2c-0.2-0.1-0.5-0.1-0.8-0.1c-1.7,0-2.9,1.5-2.9,4.8v3.4C14.8,15.1,14.6,15.3,14.3,15.3"/>
	<path clip-path="url(#SVGID_2_)" fill="#F5F5FA" d="M80.7,15.3H79c-0.3,0-0.5-0.2-0.5-0.5v-10c0-0.3,0.2-0.5,0.5-0.5h1.8
		c0.3,0,0.5,0.2,0.5,0.5v0c0,0.4,0.5,0.6,0.8,0.3c0.7-0.6,1.5-1,2.4-1c0.3,0,1.1,0.1,1.7,0.3c0.3,0.1,0.4,0.4,0.2,0.7l-0.9,1.4
		c-0.1,0.2-0.3,0.2-0.5,0.2c-0.2-0.1-0.5-0.1-0.8-0.1c-1.7,0-2.9,1.5-2.9,4.8v3.4C81.2,15.1,81,15.3,80.7,15.3"/>
	<path clip-path="url(#SVGID_2_)" fill="#F5F5FA" d="M23.1,9.8c0,0.9,0.2,1.7,0.7,2.4c0.5,0.6,1.1,1,2,1c0.8,0,1.5-0.3,2-1
		c0.5-0.6,0.7-1.4,0.7-2.4c0-0.9-0.2-1.7-0.7-2.4c-0.5-0.6-1.1-1-2-1c-0.8,0-1.5,0.3-2,1C23.4,8.1,23.1,8.9,23.1,9.8 M20.3,9.8
		c0-1.6,0.5-3,1.5-4c1-1.1,2.3-1.6,4-1.6c1.7,0,3,0.5,4,1.6c1,1.1,1.5,2.4,1.5,4s-0.5,3-1.5,4c-1,1.1-2.3,1.6-4,1.6
		c-1.7,0-3-0.5-4-1.6C20.8,12.8,20.3,11.5,20.3,9.8"/>
	<path clip-path="url(#SVGID_2_)" fill="#F5F5FA" d="M35.7,9.8c0,0.9,0.2,1.7,0.7,2.4c0.5,0.6,1.1,1,2,1c0.8,0,1.5-0.3,2-1
		c0.5-0.6,0.7-1.4,0.7-2.4c0-0.9-0.2-1.7-0.7-2.4c-0.5-0.6-1.1-1-2-1c-0.8,0-1.5,0.3-2,1C35.9,8.1,35.7,8.9,35.7,9.8 M32.9,9.8
		c0-1.6,0.5-3,1.5-4c1-1.1,2.3-1.6,4-1.6c1.7,0,3,0.5,4,1.6c1,1.1,1.5,2.4,1.5,4s-0.5,3-1.5,4c-1,1.1-2.3,1.6-4,1.6
		c-1.7,0-3-0.5-4-1.6C33.4,12.8,32.9,11.5,32.9,9.8"/>
	<path clip-path="url(#SVGID_2_)" fill="#F5F5FA" d="M45.3,6.2V4.9c0-0.3,0.2-0.5,0.5-0.5h0.9V3.8c0-2.6,1.4-3.8,3.8-3.8
		C51,0,51.5,0.1,52,0.3c0.3,0.1,0.4,0.4,0.2,0.7l-0.8,1.2c-0.1,0.1-0.3,0.2-0.5,0.2c-0.2,0-0.3,0-0.4,0c-0.8,0-1.2,0.5-1.2,1.4v0.3
		c0,0.3,0.2,0.5,0.5,0.5h1.4c0.3,0,0.5,0.2,0.5,0.5v1.4c0,0.3-0.2,0.5-0.5,0.5h-1.4c-0.3,0-0.5,0.2-0.5,0.5v7.7
		c0,0.3-0.2,0.5-0.5,0.5h-1.8c-0.3,0-0.5-0.2-0.5-0.5V7.2c0-0.3-0.2-0.5-0.5-0.5h-0.5C45.5,6.7,45.3,6.5,45.3,6.2"/>
	<path clip-path="url(#SVGID_2_)" fill="#F5F5FA" d="M60.7,9.8c0-1-0.2-1.9-0.7-2.4c-0.5-0.6-1.1-0.9-1.8-0.9s-1.3,0.3-1.8,0.9
		c-0.5,0.6-0.7,1.4-0.7,2.4c0,1.1,0.2,1.9,0.7,2.5c0.5,0.6,1.1,0.9,1.8,0.9s1.3-0.3,1.8-0.9C60.5,11.7,60.7,10.9,60.7,9.8 M55.9,15
		v4.4c0,0.2-0.1,0.3-0.3,0.3h-2.1c-0.2,0-0.3-0.1-0.3-0.3V4.7c0-0.2,0.1-0.3,0.3-0.3h2.1c0.2,0,0.3,0.1,0.3,0.3
		c0,0.3,0.3,0.4,0.5,0.2c0.5-0.4,1.3-0.7,2.1-0.7c3.2,0,5,2.2,5,5.6c0,3.4-1.8,5.6-5,5.6c-0.8,0-1.6-0.3-2.1-0.7
		C56.2,14.6,55.9,14.8,55.9,15"/>
	<path clip-path="url(#SVGID_2_)" fill="#F5F5FA" d="M68.2,9.8c0,0.9,0.2,1.7,0.7,2.4c0.5,0.6,1.1,1,2,1c0.8,0,1.5-0.3,2-1
		c0.5-0.6,0.7-1.4,0.7-2.4c0-0.9-0.2-1.7-0.7-2.4c-0.5-0.6-1.1-1-2-1c-0.8,0-1.5,0.3-2,1C68.4,8.1,68.2,8.9,68.2,9.8 M65.4,9.8
		c0-1.6,0.5-3,1.5-4c1-1.1,2.3-1.6,4-1.6c1.7,0,3,0.5,4,1.6c1,1.1,1.5,2.4,1.5,4s-0.5,3-1.5,4c-1,1.1-2.3,1.6-4,1.6
		c-1.7,0-3-0.5-4-1.6C65.9,12.8,65.4,11.5,65.4,9.8"/>
	<path clip-path="url(#SVGID_2_)" fill="#F5F5FA" d="M95,14.7c0.1,0.2-0.1,0.5-0.3,0.6c-0.4,0.1-0.9,0.2-1.4,0.2c-2.5,0-4-1.4-4-4
		V7.2c0-0.3-0.2-0.5-0.5-0.5h-0.8c-0.3,0-0.5-0.2-0.5-0.5V4.9c0-0.3,0.2-0.5,0.5-0.5h0.8c0.3,0,0.5-0.2,0.5-0.5V3
		c0-0.1,0-0.2,0.1-0.3l1.8-2.5C91.4-0.1,92,0,92,0.5v3.4c0,0.3,0.2,0.5,0.5,0.5h1.9c0.3,0,0.5,0.2,0.5,0.5v1.4
		c0,0.3-0.2,0.5-0.5,0.5h-1.9c-0.3,0-0.5,0.2-0.5,0.5v4.2c0,1.3,0.5,1.8,1.4,1.8c0.2,0,0.4,0,0.6-0.1c0.2-0.1,0.5,0.1,0.6,0.3
		L95,14.7z"/>
</g>
</svg>
